<?xml version="1.0" encoding="UTF-8" standalone="no"?>
<svg xmlns:se="https://standardebooks.org/vocab/1.0" se:generated-from="6225a91d45fedcd0900ab6d2b25b9fcb787f7877" xmlns="http://www.w3.org/2000/svg" version="1.1" viewBox="0 0 1400 340">
 <path d="M 125.8918,52.807016 125.8918,130 143.48245,130 143.48245,101.36842 154.05555,101.36842 C 169.11987,101.36842 180.44151,92.479532 180.44151,76.573098 180.44151,60.573098 169.11987,52.807016 154.05555,52.807016 L 125.8918,52.807016 Z M 143.48245,87.333333 143.48245,66.842104 148.44151,66.842104 C 155.36549,66.842104 161.9152,69.181285 161.9152,77.134502 161.9152,84.994151 155.36549,87.333333 148.44151,87.333333 L 143.48245,87.333333 Z"/>
 <path d="M 193.20906,52.807016 193.20906,130 210.7997,130 210.7997,99.497075 234.37865,130 256.74122,130 230.16812,98.093567 C 239.61841,95.099415 245.98099,87.333333 245.98099,75.730993 245.98099,60.573098 235.12719,52.807016 220.8114,52.807016 L 193.20906,52.807016 Z M 210.7997,87.052631 210.7997,66.842104 212.85818,66.842104 C 219.50145,66.842104 227.45467,67.30994 227.45467,76.947367 227.45467,86.584795 219.50145,87.052631 212.85818,87.052631 L 210.7997,87.052631 Z"/>
 <path d="M 282.86842,52.807016 265.27777,52.807016 265.27777,130 282.86842,130 282.86842,52.807016 Z"/>
 <path d="M 299.15204,52.807016 299.15204,130 321.51462,130 C 342.75438,130 360.43859,113.90643 360.43859,91.356724 360.43859,68.900584 342.66081,52.807016 321.51462,52.807016 L 299.15204,52.807016 Z M 316.74269,114.2807 316.74269,68.526315 319.45614,68.526315 C 332.55555,68.526315 341.44444,78.538011 341.44444,91.450292 341.35087,104.36257 332.46198,114.2807 319.45614,114.2807 L 316.74269,114.2807 Z"/>
 <path d="M 417.39473,52.807016 373.23099,52.807016 373.23099,130 417.39473,130 417.39473,114.5614 390.82163,114.5614 390.82163,99.029239 416.27193,99.029239 416.27193,83.590642 390.82163,83.590642 390.82163,68.245613 417.39473,68.245613 417.39473,52.807016 Z"/>
 <path d="M 502.2968,52.807016 486.0161,52.807016 454.8582,130 473.75879,130 479.46639,114.5614 508.84651,114.5614 514.55411,130 533.4547,130 502.2968,52.807016 Z M 502.8582,99.122806 485.45469,99.122806 494.06288,76.666666 494.25002,76.666666 502.8582,99.122806 Z"/>
 <path d="M 558.96493,82.093566 559.15206,82.093566 589.84212,130 607.43277,130 607.43277,52.807016 589.84212,52.807016 589.84212,100.71345 589.65499,100.71345 558.96493,52.807016 541.37429,52.807016 541.37429,130 558.96493,130 558.96493,82.093566 Z"/>
 <path d="M 623.6769,52.807016 623.6769,130 646.03947,130 C 667.27924,130 684.96345,113.90643 684.96345,91.356724 684.96345,68.900584 667.18567,52.807016 646.03947,52.807016 L 623.6769,52.807016 Z M 641.26754,114.2807 641.26754,68.526315 643.98099,68.526315 C 657.08041,68.526315 665.9693,78.538011 665.9693,91.450292 665.87573,104.36257 656.98684,114.2807 643.98099,114.2807 L 641.26754,114.2807 Z"/>
 <path d="M 728.34066,52.807016 728.34066,130 745.9313,130 745.9313,101.36842 756.5044,101.36842 C 771.56873,101.36842 782.89036,92.479532 782.89036,76.573098 782.89036,60.573098 771.56873,52.807016 756.5044,52.807016 L 728.34066,52.807016 Z M 745.9313,87.333333 745.9313,66.842104 750.89036,66.842104 C 757.81434,66.842104 764.36405,69.181285 764.36405,77.134502 764.36405,84.994151 757.81434,87.333333 750.89036,87.333333 L 745.9313,87.333333 Z"/>
 <path d="M 795.65792,52.807016 795.65792,130 813.24856,130 813.24856,99.497075 836.82751,130 859.19008,130 832.61698,98.093567 C 842.06727,95.099415 848.42985,87.333333 848.42985,75.730993 848.42985,60.573098 837.57605,52.807016 823.26026,52.807016 L 795.65792,52.807016 Z M 813.24856,87.052631 813.24856,66.842104 815.30704,66.842104 C 821.95031,66.842104 829.90353,67.30994 829.90353,76.947367 829.90353,86.584795 821.95031,87.052631 815.30704,87.052631 L 813.24856,87.052631 Z"/>
 <path d="M 911.89039,52.807016 867.72664,52.807016 867.72664,130 911.89039,130 911.89039,114.5614 885.31729,114.5614 885.31729,99.029239 910.76758,99.029239 910.76758,83.590642 885.31729,83.590642 885.31729,68.245613 911.89039,68.245613 911.89039,52.807016 Z"/>
 <path d="M 960.59359,52.807016 943.00295,52.807016 943.00295,103.7076 C 943.00295,111.47368 939.16669,114.5614 934.11406,114.5614 929.62283,114.5614 924.10236,109.32164 924.10236,109.32164 L 918.48833,124.0117 C 918.48833,124.0117 925.50587,131.40351 936.54681,131.40351 951.98541,131.40351 960.59359,123.35673 960.59359,108.19883 L 960.59359,52.807016 Z"/>
 <path d="M 1035.1842,52.807016 1017.5936,52.807016 1017.5936,97.438596 C 1017.5936,110.35088 1013.6637,114.09357 1005.0556,114.09357 996.44736,114.09357 992.51754,110.35088 992.51754,97.438596 L 992.51754,52.807016 974.9269,52.807016 974.9269,102.58479 C 974.9269,121.67251 985.40643,131.40351 1005.0556,131.40351 1024.7047,131.40351 1035.1842,121.67251 1035.1842,102.58479 L 1035.1842,52.807016 Z"/>
 <path d="M 1050.4898,52.807016 1050.4898,130 1072.8523,130 C 1094.0921,130 1111.7763,113.90643 1111.7763,91.356724 1111.7763,68.900584 1093.9985,52.807016 1072.8523,52.807016 L 1050.4898,52.807016 Z M 1068.0804,114.2807 1068.0804,68.526315 1070.7939,68.526315 C 1083.8933,68.526315 1092.7822,78.538011 1092.7822,91.450292 1092.6886,104.36257 1083.7997,114.2807 1070.7939,114.2807 L 1068.0804,114.2807 Z"/>
 <path d="M 1142.1594,52.807016 1124.5687,52.807016 1124.5687,130 1142.1594,130 1142.1594,52.807016 Z"/>
 <path d="M 1196.595,114.09357 C 1178.9108,114.09357 1171.1447,101.74269 1171.1447,91.356724 1171.1447,81.064327 1178.9108,68.713449 1196.595,68.713449 1205.5775,68.713449 1211.7529,73.485379 1211.7529,73.485379 L 1219.2383,58.514619 C 1219.2383,58.514619 1210.6301,51.403507 1193.8816,51.403507 1171.9868,51.403507 1152.057,69.36842 1152.057,91.543859 1152.057,113.62573 1172.0804,131.40351 1193.8816,131.40351 1210.6301,131.40351 1219.2383,124.2924 1219.2383,124.2924 L 1211.7529,109.32164 C 1211.7529,109.32164 1205.5775,114.09357 1196.595,114.09357 Z"/>
 <path d="M 1275.2238,52.807016 1231.06,52.807016 1231.06,130 1275.2238,130 1275.2238,114.5614 1248.6507,114.5614 1248.6507,99.029239 1274.101,99.029239 1274.101,83.590642 1248.6507,83.590642 1248.6507,68.245613 1275.2238,68.245613 1275.2238,52.807016 Z"/>
 <path d="M 456.52796,232.10526 443.33498,232.10526 443.33498,270.2807 C 443.33498,276.10526 440.45779,278.42105 436.66831,278.42105 433.29989,278.42105 429.15954,274.49123 429.15954,274.49123 L 424.94902,285.50877 C 424.94902,285.50877 430.21217,291.05263 438.49288,291.05263 450.07182,291.05263 456.52796,285.01754 456.52796,273.64912 L 456.52796,232.10526 Z"/>
 <path d="M 498.63323,232.10526 486.4227,232.10526 463.05428,290 477.22972,290 481.51042,278.42105 503.54551,278.42105 507.82621,290 522.00165,290 498.63323,232.10526 Z M 499.05428,266.84211 486.00165,266.84211 492.45779,250 492.59814,250 499.05428,266.84211 Z"/>
 <path d="M 542.38432,254.07018 542.52467,254.07018 565.54222,290 578.7352,290 578.7352,232.10526 565.54222,232.10526 565.54222,268.03509 565.40187,268.03509 542.38432,232.10526 529.19134,232.10526 529.19134,290 542.38432,290 542.38432,254.07018 Z"/>
 <path d="M 625.29113,232.10526 592.16832,232.10526 592.16832,290 625.29113,290 625.29113,278.42105 605.36131,278.42105 605.36131,266.77193 624.44903,266.77193 624.44903,255.19298 605.36131,255.19298 605.36131,243.68421 625.29113,243.68421 625.29113,232.10526 Z"/>
 <path d="M 691.46766,232.10526 679.25713,232.10526 655.88871,290 670.06415,290 674.34485,278.42105 696.37994,278.42105 700.66064,290 714.83608,290 691.46766,232.10526 Z M 691.88871,266.84211 678.83608,266.84211 685.29222,250 685.43257,250 691.88871,266.84211 Z"/>
 <path d="M 766.517,232.10526 753.32402,232.10526 753.32402,265.57895 C 753.32402,275.26316 750.37665,278.07018 743.92051,278.07018 737.46437,278.07018 734.517,275.26316 734.517,265.57895 L 734.517,232.10526 721.32402,232.10526 721.32402,269.4386 C 721.32402,283.75439 729.18367,291.05263 743.92051,291.05263 758.65735,291.05263 766.517,283.75439 766.517,269.4386 L 766.517,232.10526 Z"/>
 <path d="M 799.2089,231.05263 C 789.87557,231.05263 780.33171,237.92983 780.33171,248.73684 780.33171,254.77193 784.40188,260.17544 791.34925,263.61404 798.22645,267.05263 804.40188,268.94737 804.40188,273.15789 804.40188,278.5614 798.9282,278.84211 796.05101,278.84211 789.59487,278.84211 781.87557,272.31579 781.87557,272.31579 L 775.27908,283.40351 C 775.27908,283.40351 783.4896,291.05263 797.03346,291.05263 808.33171,291.05263 818.85802,286.21053 818.85802,272.38597 818.85802,264.80702 811.77031,259.33333 805.31417,256.59649 798.71767,253.78947 793.24399,251.47368 793.24399,248.24561 793.24399,245.08772 795.62995,243.05263 800.12118,243.05263 806.08609,243.05263 811.84048,247.05263 811.84048,247.05263 L 817.17381,236.52632 C 817.17381,236.52632 809.73522,231.05263 799.2089,231.05263 Z"/>
 <path d="M 822.94901,243.68421 836.7034,243.68421 836.7034,290 849.89638,290 849.89638,243.68421 863.65076,243.68421 863.65076,232.10526 822.94901,232.10526 822.94901,243.68421 Z"/>
 <path d="M 906.52468,232.10526 873.40187,232.10526 873.40187,290 906.52468,290 906.52468,278.42105 886.59486,278.42105 886.59486,266.77193 905.68258,266.77193 905.68258,255.19298 886.59486,255.19298 886.59486,243.68421 906.52468,243.68421 906.52468,232.10526 Z"/>
 <path d="M 932.3021,254.07018 932.44245,254.07018 955.46,290 968.65298,290 968.65298,232.10526 955.46,232.10526 955.46,268.03509 955.31965,268.03509 932.3021,232.10526 919.10912,232.10526 919.10912,290 932.3021,290 932.3021,254.07018 Z"/>
</svg>
